# xmcd
#
# Track frame offsets:
# 150
# 20335
# 31162
# 45701
# 57156
# 74419
# 89672
# 102768
# 119644
# 132062
# 145859
#
# Disc length: 2215 seconds
#
#
# Revision: 0
# Processed by: cddbd v1.5.2PL0 Copyright (c) Steve Scherf et al.
# Submitted via: Nero 7, 11, 10, 0 
#
DISCID=9708a50b
DTITLE=Dmitri Resnik - It Ain't Rocket Science
DYEAR=1998
DGENRE=Blues
TTITLE0=Answering Machine Shuffle
TTITLE1=Ridin' The Vibrato Highway
TTITLE2=Joe's Blues
TTITLE3=Runnin' Hot
TTITLE4=Duffossat St. Theme
TTITLE5=Clementine's Tempo
TTITLE6=Tell Me Twice
TTITLE7=Coffee And A Cigar
TTITLE8=Fast Track
TTITLE9=Livin' On $45 A Week
TTITLE10=Turn The Page
EXTD=
EXTT0=Answering Machine Shuffle
EXTT1=Ridin' The Vibrato Highway
EXTT2=Joe's Blues
EXTT3=Runnin' Hot
EXTT4=Duffossat St. Theme
EXTT5=Clementine's Tempo
EXTT6=Tell Me Twice
EXTT7=Coffee And A Cigar
EXTT8=Fast Track
EXTT9=Livin' On $45 A Week
EXTT10=Turn The Page
PLAYORDER=
